<?xml version="1.0" encoding="UTF-8" standalone="no"?>
<svg width="1000" height="375" xmlns="http://www.w3.org/2000/svg">
<style>
	path {
		fill:white;
	}
</style>
<g transform="matrix(1.40586 0 0 1.4063 193.69 55.132)">
	<path d="M165.69 189.135V149.05h6.617v15.777h13.043V149.05h6.617v40.085h-6.617v-17.527h-13.043v17.527h-6.617"/>
	<path d="m203.423 168.928-5.714-1.257c.692-2.935 1.836-5.045 3.43-6.33 1.595-1.286 3.888-1.927 6.878-1.927 2.661 0 4.693.373 6.097 1.121 1.404.75 2.407 1.767 3.008 3.05.601 1.287.903 3.629.903 7.022l-.055 8.976c0 2.519.1 4.393.301 5.625.2 1.232.572 2.54 1.12 3.927h-6.233l-.821-3.172c-1.075 1.276-2.228 2.239-3.459 2.885a8.317 8.317 0 0 1-3.924.971c-2.315 0-4.21-.78-5.687-2.341-1.477-1.56-2.216-3.636-2.216-6.23 0-1.642.302-3.074.903-4.298.601-1.223 1.45-2.2 2.543-2.93 1.094-.73 2.844-1.378 5.25-1.945 2.916-.673 4.95-1.304 6.098-1.888 0-1.615-.114-2.672-.342-3.176-.228-.504-.648-.917-1.258-1.237-.611-.322-1.472-.482-2.584-.482-1.13 0-2.019.255-2.666.766-.646.51-1.17 1.468-1.572 2.87zm8.422 6.262c-.802.33-2.051.714-3.747 1.153-1.95.51-3.225 1.077-3.828 1.7-.601.621-.901 1.425-.901 2.413 0 1.116.332 2.052.997 2.811.665.759 1.5 1.139 2.503 1.139.893 0 1.777-.307 2.652-.919.874-.613 1.481-1.34 1.818-2.181.338-.84.506-2.367.506-4.579v-1.537"/>
	<path d="M223.711 160.096h5.798v3.966c1.038-1.55 2.176-2.711 3.416-3.487a7.464 7.464 0 0 1 4.021-1.161c1.53 0 2.856.382 3.977 1.148 1.122.765 2.038 1.922 2.75 3.472 1.057-1.55 2.19-2.707 3.402-3.472 1.214-.766 2.503-1.148 3.871-1.148 1.621 0 3.02.388 4.197 1.161 1.175.776 2.068 1.885 2.68 3.327.61 1.441.914 3.658.914 6.65v18.583h-6.315v-16.617c0-2.9-.255-4.831-.765-5.788-.511-.959-1.368-1.438-2.571-1.438-1.404 0-2.533.671-3.39 2.012-.857 1.342-1.287 3.964-1.287 7.871v13.96h-6.315v-15.932c0-3.157-.175-5.19-.521-6.104-.455-1.204-1.375-1.807-2.76-1.807-.93 0-1.787.311-2.571.931-.784.62-1.348 1.528-1.695 2.724-.346 1.195-.521 3.216-.521 6.064v14.124h-6.315v-29.039"/>
	<path d="M264.67 189.135V149.05h6.317v14.41c.964-1.349 2.023-2.361 3.18-3.036a7.266 7.266 0 0 1 3.727-1.01c2.801 0 5.17 1.268 7.112 3.806 1.937 2.539 2.905 6.283 2.905 11.232 0 4.931-.992 8.724-2.973 11.382-1.985 2.657-4.316 3.985-6.99 3.985-1.367 0-2.714-.423-4.042-1.272-1.328-.848-2.455-2.073-3.385-3.677v4.265zm6.263-15.15c0 2.505.237 4.417.71 5.733.475 1.316 1.148 2.317 2.024 3.002.875.686 1.794 1.028 2.76 1.028 1.386 0 2.571-.725 3.555-2.178.984-1.455 1.476-3.754 1.476-6.899 0-3.31-.497-5.7-1.49-7.17-.994-1.474-2.254-2.209-3.786-2.209-1.457 0-2.697.714-3.719 2.139-1.02 1.425-1.53 3.61-1.53 6.555"/>
	<path d="M308.583 189.135v-4.343c-.874 1.575-2.02 2.807-3.44 3.695-1.418.888-2.904 1.332-4.448 1.332-1.565 0-2.968-.41-4.205-1.232-1.237-.82-2.161-1.988-2.77-3.503-.61-1.513-.915-3.713-.915-6.596v-18.392h6.317v13.344c0 3.81.095 6.231.287 7.259.19 1.032.612 1.828 1.266 2.393.656.566 1.444.848 2.372.848 1.055 0 2.026-.369 2.916-1.108.891-.738 1.478-1.685 1.759-2.844.284-1.156.424-3.704.424-7.641v-12.25h6.315v29.038h-5.878"/>
	<path d="M327.01 189.135h-6.315v-29.039h5.852v4.13c1.003-1.932 1.902-3.218 2.692-3.856a4.265 4.265 0 0 1 2.748-.956c1.44 0 2.818.482 4.131 1.448l-1.97 6.7c-1.038-.839-2.023-1.258-2.953-1.258-.874 0-1.645.323-2.309.971-.667.648-1.147 1.821-1.437 3.519-.292 1.697-.439 4.818-.439 9.362v8.979"/>
	<path d="m338.167 191.05 7.219 1.066c.11 1.058.44 1.808.997 2.256.555.446 1.435.67 2.638.67 1.385 0 2.508-.228 3.365-.683.601-.33 1.065-.876 1.393-1.641.328-.766.492-2.115.492-4.047v-4.239c-.948 1.568-2.013 2.744-3.198 3.528a6.98 6.98 0 0 1-3.938 1.175c-2.642 0-4.866-1.195-6.672-3.585-2.077-2.738-3.117-6.44-3.117-11.112 0-4.963.98-8.707 2.94-11.235 1.959-2.525 4.333-3.79 7.123-3.79 1.477 0 2.821.395 4.034 1.189 1.211.793 2.291 1.982 3.239 3.569v-4.075h5.907v26.059c0 4.175-.383 7.201-1.148 9.079-.766 1.877-1.948 3.294-3.543 4.252-1.596.957-3.804 1.434-6.63 1.434-2.606 0-4.695-.345-6.262-1.038-1.568-.692-2.767-1.728-3.595-3.103-.83-1.377-1.244-2.968-1.244-4.772zM343.8 174c0 3.104.495 5.368 1.49 6.792.993 1.424 2.193 2.136 3.597 2.136 1.512 0 2.807-.721 3.883-2.164 1.074-1.441 1.612-3.632 1.612-6.572 0-3.03-.516-5.272-1.544-6.724-1.032-1.45-2.303-2.176-3.816-2.176-1.495 0-2.739.712-3.732 2.136-.995 1.426-1.49 3.615-1.49 6.572"/>
	<path d="M162.887 15.198V37.27h46.982c17.818 0 25.514 3.644 25.514 17.21v2.633h-37.058c-29.767 0-42.524 9.316-42.524 34.021 0 19.643 11.745 30.779 33.006 30.779h75.735V55.09c0-26.326-14.781-39.892-43.943-39.892zm37.464 85.252c-10.329 0-15.39-1.216-15.39-10.124 0-9.519 5.468-11.948 17.416-11.948h33.208v22.072zm183.664 21.464V-23.48H355.87v38.678h-24.099c-19.237 0-32.196 3.644-42.322 16.402-7.694 9.719-11.54 21.464-11.54 35.639 0 34.02 18.83 54.675 52.04 54.675zM355.87 99.032h-19.237c-20.859 0-29.162-7.493-29.162-29.766 0-23.087 9.519-30.984 31.388-30.984h17.011Zm61.476-62.573v85.455h29.16V36.459h26.728V15.198h-26.728V6.692c0-7.289 4.455-9.517 13.367-9.517h13.361V-23.48h-26.728c-22.881 0-29.16 6.075-29.16 27.743v10.935h-20.25v21.261zm126.217 62.573c-9.516 0-16.605 0-22.274-3.444-8.706-5.262-12.555-13.769-12.555-26.526 0-24.706 10.735-30.78 34.83-30.78h29.97V15.198h-38.27c-17.618 0-30.173 3.241-40.097 12.757-9.922 9.517-15.794 24.3-15.794 41.107 0 15.997 6.076 30.577 15.794 40.096 9.924 9.718 22.479 12.756 40.096 12.756h38.271V99.032h-29.97"/>
	<path d="M3.955 203.304a110.83 110.83 0 0 1-10.15.487c-60.077 0-108.954-48.877-108.954-108.953 0-60.078 48.877-108.956 108.954-108.956 29.448 0 56.184 11.76 75.809 30.808C48.237-9.917 15.464-26.992-21.24-26.992c-64.259 0-116.533 52.278-116.533 116.536 0 64.255 52.274 116.534 116.533 116.534 8.653 0 17.077-.978 25.195-2.774"
		style="fill:#f47216;"/>
	<path d="M-6.923-39.204c-9.356 0-18.489.982-27.308 2.823 4.483-.484 9.033-.748 13.647-.748 69.733 0 126.46 56.724 126.46 126.447 0 69.725-56.727 126.446-126.46 126.446-34.804 0-66.367-14.132-89.259-36.958 24.478 29.688 61.526 48.646 102.92 48.646 73.529 0 133.348-59.81 133.348-133.328 0-73.516-59.819-133.328-133.348-133.328"/>
	<path d="M7.303 93.215c0 8.648-7.006 15.659-15.66 15.659-8.646 0-15.66-7.011-15.66-15.659 0-8.65 7.014-15.661 15.66-15.661 8.654 0 15.66 7.01 15.66 15.661"/>
</g>
</svg>
